<?xml version="1.0" encoding="utf-8"?>
<!-- Generator: Adobe Illustrator 24.1.2, SVG Export Plug-In . SVG Version: 6.00 Build 0)  -->
<svg version="1.1" id="Layer_1" xmlns="http://www.w3.org/2000/svg" xmlns:xlink="http://www.w3.org/1999/xlink" x="0px" y="0px"
	 viewBox="0 0 100 100" style="enable-background:new 0 0 100 100;" xml:space="preserve">
<style type="text/css">
	.st0{fill:#FFFFFF;stroke:#000000;stroke-width:4;stroke-linecap:round;stroke-linejoin:round;stroke-miterlimit:10;}
</style>
<path d="M81,32.8l-3.4-8.2c-0.2-0.5-0.7-1-1.3-1.1c-0.6-0.2-1.2,0-1.7,0.3l-13.2,9.8c-0.7,0.5-1,1.4-0.6,2.2c0.3,0.7,1,1.2,1.8,1.2
	c0.1,0,0.1,0,0.2,0l16.6-1.6c0.6-0.1,1.2-0.4,1.5-0.9C81.2,34,81.2,33.4,81,32.8z"/>
<path d="M58.3,26.8c0.3,0.3,0.8,0.4,1.2,0.4c0.4,0,0.8-0.1,1.1-0.4L71,19.2c0.4-0.3,0.7-0.8,0.8-1.4c0-0.5-0.1-1.1-0.5-1.5l-4.8-5
	c-0.4-0.5-1.1-0.7-1.7-0.6c-0.6,0.1-1.2,0.5-1.4,1.1l-5.5,12.7C57.4,25.4,57.6,26.3,58.3,26.8z"/>
<path d="M32.8,20.8l10,3.4c0.2,0.1,0.4,0.1,0.6,0.1c0.6,0,1.1-0.3,1.5-0.7c0.5-0.6,0.6-1.5,0.1-2.2L39,11.7c-0.3-0.6-1-0.9-1.6-0.9
	c0,0,0,0,0,0c-0.7,0-1.3,0.3-1.6,0.9l-4,6.3c-0.3,0.5-0.4,1.1-0.2,1.7C31.8,20.2,32.2,20.6,32.8,20.8z"/>
<path d="M23.2,37c0.2,0.5,0.5,0.9,1,1.2c0.1,0.1,0.2,0.1,0.4,0.1c0.4,0.1,0.8,0.1,1.2-0.1l14.8-5.9c1.2-1.5,0.4-3.2-1.1-3.4
	l-16.7-2.5c-0.7-0.1-1.3,0.1-1.7,0.6c-0.4,0.5-0.6,1.2-0.4,1.8L23.2,37z"/>
<path d="M49.3,17.5c0.3,0.7,1,1.3,1.8,1.3c0,0,0,0,0.1,0c0.8,0,1.5-0.5,1.8-1.2l5.4-9.9c0.2-0.6,0.2-1.3-0.2-1.8
	C57.7,5.3,57.1,5,56.5,5l-8,0c-0.6,0-1.2,0.3-1.6,0.8c-0.4,0.5-0.5,1.2-0.3,1.8L49.3,17.5z"/>
<rect x="47.3" y="84.9" width="10.1" height="10.1"/>
<polygon points="19.3,95 33.4,95 51.3,50 70.8,95 80.9,95 50,21.8 "/>
</svg>
