<?xml version="1.0" encoding="utf-8"?>
<!-- Generator: Adobe Illustrator 24.1.2, SVG Export Plug-In . SVG Version: 6.00 Build 0)  -->
<svg version="1.1" id="Layer_1" xmlns="http://www.w3.org/2000/svg" xmlns:xlink="http://www.w3.org/1999/xlink" x="0px" y="0px"
	 viewBox="0 0 135 100" style="enable-background:new 0 0 135 100;" xml:space="preserve">
<style type="text/css">
	.st0{fill:#FFFFFF;stroke:#000000;stroke-width:4;stroke-linecap:round;stroke-linejoin:round;stroke-miterlimit:10;}
	.st1{font-family:'Futura-MediumItalic';}
	.st2{font-size:23.678px;}
	.st3{font-family:'Futura-CondensedMedium';}
	.st4{font-size:18.4665px;}
</style>
<path d="M64.2,26.3L61.6,20c-0.2-0.4-0.5-0.7-1-0.9c-0.4-0.1-0.9,0-1.3,0.2l-10.1,7.5c-0.5,0.4-0.7,1.1-0.5,1.7
	c0.2,0.6,0.8,0.9,1.4,0.9c0,0,0.1,0,0.1,0L63,28.4c0.5,0,0.9-0.3,1.1-0.7C64.4,27.2,64.4,26.8,64.2,26.3z"/>
<path d="M46.8,21.8c0.3,0.2,0.6,0.3,0.9,0.3c0.3,0,0.6-0.1,0.9-0.3l7.9-5.9c0.3-0.3,0.6-0.6,0.6-1.1c0-0.4-0.1-0.8-0.4-1.1l-3.6-3.8
	c-0.3-0.4-0.8-0.5-1.3-0.4c-0.5,0.1-0.9,0.4-1.1,0.9L46.4,20C46.1,20.6,46.3,21.3,46.8,21.8z"/>
<path d="M27.2,17.1l7.7,2.6c0.2,0.1,0.3,0.1,0.5,0.1c0.4,0,0.9-0.2,1.2-0.6c0.4-0.5,0.4-1.2,0.1-1.7L32,10.1
	c-0.3-0.4-0.7-0.7-1.2-0.7c0,0,0,0,0,0c-0.5,0-1,0.3-1.2,0.7l-3,4.9c-0.2,0.4-0.3,0.8-0.1,1.3C26.5,16.7,26.8,17,27.2,17.1z"/>
<path d="M19.9,29.5c0.1,0.4,0.4,0.7,0.8,0.9c0.1,0,0.2,0.1,0.3,0.1c0.3,0.1,0.6,0.1,0.9-0.1l11.3-4.5c0.9-1.2,0.3-2.5-0.8-2.6
	l-12.8-2c-0.5-0.1-1,0.1-1.3,0.5s-0.4,0.9-0.3,1.4L19.9,29.5z"/>
<path d="M39.9,14.6c0.2,0.6,0.7,1,1.3,1c0,0,0,0,0,0c0.6,0,1.1-0.4,1.4-0.9L46.7,7c0.2-0.4,0.1-1-0.1-1.4C46.4,5.3,45.9,5,45.4,5
	l-6.1,0c-0.5,0-0.9,0.2-1.2,0.6C37.8,6,37.7,6.5,37.9,7L39.9,14.6z"/>
<rect x="38.4" y="66.3" width="7.7" height="7.7"/>
<polygon points="16.9,74.1 27.7,74.1 41.4,39.5 56.4,74.1 64.1,74.1 40.5,17.9 "/>
<text transform="matrix(1 0 0 1 66.1298 73.3574)" class="st1 st2">1256</text>
<text transform="matrix(1 0 0 1 88.2822 90.4834)" class="st3 st4">(480)</text>
</svg>
