<?xml version="1.0" encoding="utf-8"?>
<!-- Generator: Adobe Illustrator 24.1.2, SVG Export Plug-In . SVG Version: 6.00 Build 0)  -->
<svg version="1.1" id="Layer_1" xmlns="http://www.w3.org/2000/svg" xmlns:xlink="http://www.w3.org/1999/xlink" x="0px" y="0px"
	 viewBox="0 0 100 100" style="enable-background:new 0 0 100 100;" xml:space="preserve">
<style type="text/css">
	.st0{fill:#FFFFFF;stroke:#000000;stroke-width:4;stroke-linecap:round;stroke-linejoin:round;stroke-miterlimit:10;}
	path{fill:var(--font)}
</style>
<path class="symbol" d="M80.4,38c0-0.1,0.1-0.1,0.1-0.2c0,0,0-0.1,0-0.1c0-0.1,0-0.1,0-0.2c0,0,0-0.1,0-0.1c0-0.1,0-0.1,0-0.2c0,0,0-0.1,0-0.1
	c0,0,0,0,0,0C78.3,18.7,65.2,5,50,5C34.8,5,21.7,18.7,19.4,36.9c0,0,0,0,0,0c0,0,0,0.1,0,0.1c0,0.1,0,0.1,0,0.2c0,0,0,0.1,0,0.1
	c0,0.1,0,0.1,0,0.2c0,0,0,0.1,0,0.1c0,0.1,0.1,0.1,0.1,0.2c0,0,0,0.1,0,0.1l9.4,16.6c-2.9,4.2-4.7,9.2-4.7,14.7
	C24.4,83.5,35.9,95,50,95s25.6-11.5,25.6-25.6c0-5.5-1.7-10.5-4.7-14.7L80.4,38C80.3,38.1,80.4,38,80.4,38z M51.9,43.9v-8.5
	c2.6-4.4,6.8-5.3,12.6-5.3c4.6,0,9,2.7,12,7.1l-8.1,14.4C64.1,47.2,58.3,44.4,51.9,43.9z M23.5,37.2c2.9-4.5,7.3-7.1,12-7.1
	c5.8,0,10,0.9,12.6,5.3v8.5c-6.4,0.5-12.2,3.3-16.4,7.7L23.5,37.2z M50,88.4c-10.5,0-19-8.5-19-19c0-10.5,8.5-19,19-19s19,8.5,19,19
	C69,79.9,60.5,88.4,50,88.4z"/>
</svg>
